<svg xmlns="http://www.w3.org/2000/svg" xmlns:xlink="http://www.w3.org/1999/xlink" version="1.1" x="0px" y="0px" viewBox="0 0 100 125" enable-background="new 0 0 100 100" xml:space="preserve"><g><defs><rect id="b" width="100" height="100"/></defs><clipPath id="a"><use xlink:href="#b" overflow="visible"/></clipPath><path clip-path="url(#a)" d="M76.958,46.427L53.001,25.548c-1.178-1.026-2.932-1.024-4.106,0.004L25.04,46.432   c-2.168,1.898-0.825,5.469,2.056,5.469c1.723,0,3.12,1.397,3.12,3.121v18.23c0,1.724,1.398,3.12,3.121,3.12h10.935V60.395   c0-0.975,0.789-1.764,1.763-1.764h9.933c0.974,0,1.764,0.789,1.764,1.764v15.978h10.385c1.724,0,3.121-1.396,3.121-3.12v-18.23   c0-1.724,1.397-3.121,3.12-3.121h0.55C77.792,51.9,79.133,48.322,76.958,46.427"/></g><text x="0" y="115" fill="#000000" font-size="5px" font-weight="bold" font-family="'Helvetica Neue', Helvetica, Arial-Unicode, Arial, Sans-serif">Created by slothali</text><text x="0" y="120" fill="#000000" font-size="5px" font-weight="bold" font-family="'Helvetica Neue', Helvetica, Arial-Unicode, Arial, Sans-serif">from the Noun Project</text></svg>